# xmcd CD database file
#
# Track frame offsets:
#	150
#	14487
#	25679
#	39036
#	49308
#	70322
#	83296
#	97134
#	116316
#	135470
#	154455
#	179919
#	196980
#	216441
#	232490
#	248831
#	265390
#	280409
#	299122
#
# Disc length: 4231 seconds
#
# Revision: 0
# Processed by: cddbd v1.5.2PL0 Copyright (c) Steve Scherf et al.
# Submitted via: CDex 1.51
#
DISCID=27108513
DTITLE=Peter Driessen - Talking About It
DYEAR=2015
DGENRE=Blues
TTITLE0=My Baby`s So Damn Hot
TTITLE1=No No No No One
TTITLE2=Life After Midnight
TTITLE3=I`m Looking For My Baby
TTITLE4=My Night`s A Ship
TTITLE5=Bang Bang Bang Bang 
TTITLE6=Silent Sinner
TTITLE7=A Man Is A Rover
TTITLE8=If I Would
TTITLE9=Let Me Be Your Part-Time Friend
TTITLE10=I Lay Down Last Night
TTITLE11=I Ain`t Gonna Hold You Back
TTITLE12=Old Woodhouse In The Forest
TTITLE13=Heat Up!
TTITLE14=Big City Northern Rome
TTITLE15=Little Woman
TTITLE16=For A Kiss
TTITLE17=When I Turned The Key Last Night
TTITLE18=Have You Seen My Baby?
EXTD=YEAR: 2015
EXTT0=
EXTT1=
EXTT2=
EXTT3=
EXTT4=
EXTT5=
EXTT6=
EXTT7=
EXTT8=
EXTT9=
EXTT10=
EXTT11=
EXTT12=
EXTT13=
EXTT14=
EXTT15=
EXTT16=
EXTT17=
EXTT18=
PLAYORDER=
